<svg id="Capa_1" enable-background="new 0 0 512 512" height="512" viewBox="0 0 512 512" width="512" xmlns="http://www.w3.org/2000/svg"><path d="m235.597 220.616c0 8.284-6.716 15-15 15h-63.673c8.34 47.126 49.593 83.033 99.076 83.033s90.735-35.907 99.076-83.033h-64.692c-8.284 0-15-6.716-15-15s6.716-15 15-15h66.232v-30h-66.232c-8.284 0-15-6.716-15-15s6.716-15 15-15h66.232v-30h-66.232c-8.284 0-15-6.716-15-15s6.716-15 15-15h65.113c-7.264-48.391-49.114-85.616-99.497-85.616s-92.233 37.225-99.497 85.616h64.094c8.284 0 15 6.716 15 15s-6.716 15-15 15h-65.213v30h65.213c8.284 0 15 6.716 15 15s-6.716 15-15 15h-65.213v30h65.213c8.284 0 15 6.716 15 15z"/><path d="m416.616 218.033v-37.417c0-8.284-6.716-15-15-15s-15 6.716-15 15v37.417c0 72.022-58.594 130.616-130.616 130.616s-130.616-58.594-130.616-130.616v-37.417c0-8.284-6.716-15-15-15s-15 6.716-15 15v37.417c0 83.506 64.06 152.32 145.616 159.91v84.357h-56.999c-27.335 0-49.7 22.365-49.7 49.7h243.396c0-27.335-22.365-49.7-49.7-49.7h-56.997v-84.358c81.556-7.589 145.616-76.404 145.616-159.909z"/></svg>